<svg width="64" height="64" viewBox="0 0 64 64" fill="none" xmlns="http://www.w3.org/2000/svg">
<g id="Flags">
<g id="Namibia">
<g clip-path="url(#clip0_0_1)">
<g id="Clip path group">
<mask id="mask0_0_1" style="mask-type:luminance" maskUnits="userSpaceOnUse" x="0" y="0" width="64" height="64">
<g id="clip0_199_9589">
<path id="Vector" d="M64 32C64 14.3269 49.6731 0 32 0C14.3269 0 0 14.3269 0 32C0 49.6731 14.3269 64 32 64C49.6731 64 64 49.6731 64 32Z" fill="white"/>
</g>
</mask>
<g mask="url(#mask0_0_1)">
<g id="Group">
<path id="Vector_2" d="M64 32C64 14.3269 49.6731 0 32 0C14.3269 0 0 14.3269 0 32C0 49.6731 14.3269 64 32 64C49.6731 64 64 49.6731 64 32Z" fill="white"/>
<g id="Mask group">
<mask id="mask1_0_1" style="mask-type:alpha" maskUnits="userSpaceOnUse" x="0" y="0" width="64" height="64">
<g id="Group_2">
<path id="Vector_3" d="M32 64C49.6731 64 64 49.6731 64 32C64 14.3269 49.6731 0 32 0C14.3269 0 0 14.3269 0 32C0 49.6731 14.3269 64 32 64Z" fill="white"/>
</g>
</mask>
<g mask="url(#mask1_0_1)">
<g id="Group_3">
<path id="Vector_4" d="M64 0H0V64H64V0Z" fill="white"/>
<path id="Vector_5" d="M50.5757 2.09627L-2.78027 37.4395L13.4249 61.9037L66.7809 26.5605L50.5757 2.09627Z" fill="#960A3C"/>
<path id="Vector_6" d="M69.3559 29.0001L16 64.3433L23.7313 76.0149L77.0873 40.6717L69.3559 29.0001Z" fill="#005B13"/>
<path id="Vector_7" d="M38.3559 -10.9999L-15 24.3433L-7.26866 36.0149L46.0873 0.671685L38.3559 -10.9999Z" fill="#231D9A"/>
</g>
</g>
</g>
</g>
</g>
</g>
</g>
</g>
</g>
<defs>
<clipPath id="clip0_0_1">
<rect width="64" height="64" rx="32" fill="white"/>
</clipPath>
</defs>
</svg>
